<svg xmlns="http://www.w3.org/2000/svg" viewBox="0 0 533.5 544.3"><path fill="#4285F4" d="M533.5 278.4c0-18.4-1.5-36-4.3-53.2H272v100.7h146.9c-6.3 34-25.1 62.9-53.3 82.3v68.4h86.1c50.4-46.5 81.8-115 81.8-198.2z"/><path fill="#34A853" d="M272 544.3c72.6 0 133.6-24.1 178.1-65.4l-86.1-68.4c-24 16.1-54.9 25.6-92 25.6-70.7 0-130.7-47.8-152.1-112.2H32.7v70.6C77.2 487.6 167.2 544.3 272 544.3z"/><path fill="#FBBC05" d="M119.9 323.9c-10.9-32.7-10.9-68 0-100.7V152.6H32.7c-39.6 78.6-39.6 171.6 0 250.2l87.2-78.9z"/><path fill="#EA4335" d="M272 107.4c39.5-.6 77.6 14.4 106.7 42.5l80-80C403.4 24.9 341.2-.1 272 0 167.2 0 77.2 56.7 32.7 152.6l87.2 70.6C141.3 155.2 201.3 107.4 272 107.4z"/></svg>